# Exported from Wings 3D 2.2.5
mtllib ChainZ-ZMiddle.mtl
o ChainZ-ZMiddle
#24 vertices, 20 faces
v 12.00000000 0.30000000 -11.00000000
v 13.00000000 0.30000000 -11.00000000
v 12.00000000 0.30000000 -10.00000000
v 13.00000000 0.30000000 -10.00000000
v 12.68500000 0.30000000 -10.68500000
v 12.31500000 0.30000000 -10.68500000
v 12.31500000 0.30000000 -10.31500000
v 12.68500000 0.30000000 -10.31500000
v 12.62469000 0.50609642 -10.62469000
v 12.37531000 0.50609642 -10.62469000
v 12.37531000 0.50609642 -10.37531000
v 12.62469000 0.50609642 -10.37531000
v 12.56234500 0.50609642 -10.56234500
v 12.43765500 0.50609642 -10.56234500
v 12.43765500 0.50609642 -10.43765500
v 12.56234500 0.50609642 -10.43765500
v 12.52988879 0.69075609 -10.56234500
v 12.56234500 0.65829989 -10.56234500
v 12.47011121 0.69075609 -10.56234500
v 12.43765500 0.65829989 -10.56234500
v 12.47011121 0.69075609 -10.43765500
v 12.43765500 0.65829989 -10.43765500
v 12.52988879 0.69075609 -10.43765500
v 12.56234500 0.65829989 -10.43765500
vn 0.0000000e+0 1.00000000 0.0000000e+0
vn 0.0000000e+0 1.00000000 0.0000000e+0
vn 0.0000000e+0 1.00000000 0.0000000e+0
vn 0.0000000e+0 1.00000000 0.0000000e+0
vn 0.33105552 0.88363142 -0.33105552
vn -0.33105552 0.88363142 -0.33105552
vn -0.33105552 0.88363142 0.33105552
vn 0.33105552 0.88363142 0.33105552
vn 0.33105552 0.88363142 -0.33105552
vn -0.33105552 0.88363142 -0.33105552
vn -0.33105552 0.88363142 0.33105552
vn 0.33105552 0.88363142 0.33105552
vn 0.40824829 0.81649658 -0.40824829
vn -0.40824829 0.81649658 -0.40824829
vn -0.40824829 0.81649658 0.40824829
vn 0.40824829 0.81649658 0.40824829
vn 0.33655677 0.81251992 -0.47596315
vn 0.81251992 0.33655677 -0.47596315
vn -0.33655677 0.81251992 -0.47596315
vn -0.81251992 0.33655677 -0.47596315
vn -0.33655677 0.81251992 0.47596315
vn -0.81251992 0.33655677 0.47596315
vn 0.33655677 0.81251992 0.47596315
vn 0.81251992 0.33655677 0.47596315
g ChainZ-ZMiddle_default
usemtl default
s 1
f 1//1 6//6 5//5 2//2
f 2//2 4//4 3//3 1//1
f 2//2 5//5 8//8 4//4
f 3//3 7//7 6//6 1//1
f 4//4 8//8 7//7 3//3
f 5//5 9//9 12//12 8//8
f 6//6 10//10 9//9 5//5
f 7//7 11//11 10//10 6//6
f 8//8 12//12 11//11 7//7
f 9//9 13//13 16//16 12//12
f 10//10 14//14 13//13 9//9
f 11//11 15//15 14//14 10//10
f 12//12 16//16 15//15 11//11
f 13//13 18//18 24//24 16//16
f 14//14 20//20 19//19 17//17 18//18 13//13
f 15//15 22//22 20//20 14//14
f 16//16 24//24 23//23 21//21 22//22 15//15
f 19//19 21//21 23//23 17//17
f 21//21 19//19 20//20 22//22
f 24//24 18//18 17//17 23//23
